<?xml version="1.0" encoding="utf-8"?>
<!-- Generator: Adobe Illustrator 25.2.1, SVG Export Plug-In . SVG Version: 6.00 Build 0)  -->
<svg version="1.1" id="Layer_1" xmlns="http://www.w3.org/2000/svg" xmlns:xlink="http://www.w3.org/1999/xlink" x="0px" y="0px"
	 viewBox="0 0 40 40" style="enable-background:new 0 0 40 40;" xml:space="preserve">
<style type="text/css">
	.st0{fill-rule:evenodd;clip-rule:evenodd;fill:#231F20;}
</style>
<path class="st0" d="M35.5,33.1c2.8-3.4,4.5-7.8,4.5-12.6c0-11-9-20-20-20c-11,0-20,9-20,20c0,3.8,1,7.3,2.8,10.3
	c0,0.1,0.1,0.1,0.1,0.2c0.5,0.8,1,1.6,1.6,2.3c-0.5-0.7-1.1-1.4-1.5-2.1C5.5,35,9.2,38,13.7,39.5c1,0.2,1.4-0.4,1.4-1
	c0-0.2,0-0.6,0-1.1v0c0-0.6,0-1.4,0-2.3c-5.6,1.2-6.7-2.7-6.7-2.7c-0.9-2.3-2.2-2.9-2.2-2.9c-1.8-1.2,0.1-1.2,0.1-1.2
	c2,0.1,3.1,2.1,3.1,2.1c1.8,3.1,4.7,2.2,5.8,1.7c0.2-1.3,0.7-2.2,1.3-2.7c-4.4-0.5-9.1-2.2-9.1-9.9c0-2.2,0.8-4,2.1-5.4
	c-0.2-0.5-0.9-2.5,0.2-5.3c0,0,1.7-0.5,5.5,2.1c1.6-0.4,3.3-0.7,5-0.7c1.7,0,3.4,0.2,5,0.7c3.8-2.6,5.5-2.1,5.5-2.1
	c1.1,2.8,0.4,4.8,0.2,5.3c1.3,1.4,2.1,3.2,2.1,5.4c0,7.7-4.7,9.4-9.1,9.9c0.7,0.6,1.4,1.8,1.4,3.7c0,1.8,0,3.3,0,4.4v0
	c0,0.5,0,0.9,0,1.1c0,0.5,0.4,1.2,1.4,1c3.6-1.2,6.7-3.3,9-6.2"/>
</svg>
