<?xml version="1.0" encoding="utf-8"?>
<!-- Generator: Adobe Illustrator 25.2.1, SVG Export Plug-In . SVG Version: 6.00 Build 0)  -->
<svg version="1.1" id="Layer_1" xmlns="http://www.w3.org/2000/svg" xmlns:xlink="http://www.w3.org/1999/xlink" x="0px" y="0px"
	 viewBox="0 0 26 6.5" style="enable-background:new 0 0 26 6.5;" xml:space="preserve">
<style type="text/css">
	.st0{fill:#FFFFFF;}
	.st1{fill:#231F20;}
</style>
<rect x="-4.7" y="-8.9" class="st0" width="38.6" height="27"/>
<path class="st1" d="M23.4,6.5c-0.5,0-1-0.1-1.4-0.2c-0.5-0.1-0.8-0.3-1.1-0.5l0.4-0.9c0.3,0.2,0.6,0.4,0.9,0.5
	c0.4,0.1,0.8,0.2,1.1,0.2c0.5,0,0.8-0.1,1-0.2c0.2-0.1,0.4-0.3,0.4-0.6c0-0.2-0.1-0.3-0.2-0.4c-0.1-0.1-0.3-0.2-0.5-0.3
	c-0.2-0.1-0.5-0.1-0.8-0.2c-0.5-0.1-0.9-0.2-1.2-0.3c-0.3-0.1-0.5-0.3-0.8-0.5c-0.2-0.2-0.3-0.6-0.3-1c0-0.3,0.1-0.7,0.3-0.9
	c0.2-0.3,0.5-0.5,0.9-0.7C22.6,0.1,23.1,0,23.6,0c0.4,0,0.8,0,1.1,0.1c0.4,0.1,0.7,0.2,1,0.4l-0.4,0.9c-0.3-0.2-0.6-0.3-0.9-0.4
	C24.2,1.1,23.9,1,23.6,1c-0.5,0-0.8,0.1-1,0.2c-0.2,0.2-0.3,0.4-0.3,0.6c0,0.2,0.1,0.3,0.2,0.4c0.1,0.1,0.3,0.2,0.5,0.3
	s0.5,0.1,0.8,0.2c0.5,0.1,0.9,0.2,1.2,0.3c0.3,0.1,0.6,0.3,0.8,0.5c0.2,0.2,0.3,0.6,0.3,1c0,0.3-0.1,0.7-0.3,0.9
	c-0.2,0.3-0.5,0.5-0.9,0.7C24.4,6.4,24,6.5,23.4,6.5z M17.9,6.5c-0.6,0-1.2-0.1-1.7-0.4c-0.5-0.3-0.9-0.7-1.2-1.2
	c-0.3-0.5-0.4-1-0.4-1.7s0.1-1.2,0.4-1.7s0.7-0.9,1.2-1.2C16.7,0.2,17.2,0,17.9,0c0.5,0,1,0.1,1.4,0.3c0.4,0.2,0.8,0.4,1.1,0.8
	l-0.8,0.7c-0.5-0.5-1-0.7-1.7-0.7c-0.4,0-0.8,0.1-1.2,0.3c-0.3,0.2-0.6,0.4-0.8,0.8c-0.2,0.3-0.3,0.7-0.3,1.1s0.1,0.8,0.3,1.1
	c0.2,0.3,0.5,0.6,0.8,0.8c0.3,0.2,0.7,0.3,1.2,0.3c0.7,0,1.2-0.2,1.7-0.7l0.8,0.7c-0.3,0.3-0.7,0.6-1.1,0.8
	C18.9,6.4,18.4,6.5,17.9,6.5z M10.3,5.5c0.4,0,0.8-0.1,1.1-0.3c0.3-0.2,0.6-0.5,0.8-0.8c0.2-0.3,0.3-0.7,0.3-1.1s-0.1-0.8-0.3-1.1
	c-0.2-0.3-0.5-0.6-0.8-0.8c-0.3-0.2-0.7-0.3-1.1-0.3c-0.4,0-0.8,0.1-1.1,0.3C8.9,1.5,8.6,1.8,8.4,2.1C8.2,2.5,8.1,2.9,8.1,3.3
	s0.1,0.8,0.3,1.1C8.6,4.8,8.9,5,9.2,5.2C9.5,5.4,9.9,5.5,10.3,5.5z M10.3,6.5c-0.6,0-1.2-0.1-1.7-0.4C8.1,5.8,7.7,5.4,7.4,4.9
	C7.1,4.4,6.9,3.9,6.9,3.3s0.1-1.2,0.4-1.7c0.3-0.5,0.7-0.9,1.2-1.2C9.1,0.2,9.7,0,10.3,0c0.6,0,1.2,0.1,1.7,0.4
	c0.5,0.3,0.9,0.7,1.2,1.2s0.4,1,0.4,1.7s-0.1,1.2-0.4,1.7c-0.3,0.5-0.7,0.9-1.2,1.2C11.5,6.4,11,6.5,10.3,6.5z M2.6,5.4
	c0.5,0,0.9-0.1,1.2-0.3C4.2,5,4.5,4.7,4.7,4.4C4.9,4.1,5,3.7,5,3.3S4.9,2.5,4.7,2.1C4.5,1.8,4.2,1.6,3.9,1.4
	C3.5,1.2,3.1,1.1,2.6,1.1H1.1v4.3H2.6z M-0.1,0.1h2.8c0.7,0,1.3,0.1,1.8,0.4C5,0.8,5.4,1.2,5.7,1.6c0.3,0.5,0.4,1,0.4,1.6
	S6,4.5,5.7,4.9C5.4,5.4,5,5.8,4.5,6C4,6.3,3.4,6.4,2.7,6.4h-2.8V0.1z"/>
</svg>
