<?xml version="1.0" encoding="utf-8"?>
<!-- Generator: Adobe Illustrator 25.2.1, SVG Export Plug-In . SVG Version: 6.00 Build 0)  -->
<svg version="1.1" id="Layer_1" xmlns="http://www.w3.org/2000/svg" xmlns:xlink="http://www.w3.org/1999/xlink" x="0px" y="0px"
	 viewBox="0 0 40 40" style="enable-background:new 0 0 40 40;" xml:space="preserve">
<style type="text/css">
	.st0{fill-rule:evenodd;clip-rule:evenodd;fill:#231F20;}
</style>
<path class="st0" d="M29.2,13.1c1-0.1,1.9-0.4,2.8-0.8c-0.7,1-1.5,1.9-2.5,2.6c0,0.2,0,0.4,0,0.6c0,6.5-5,14-14,14
	c-2.8,0-5.4-0.8-7.5-2.2c0.4,0,0.8,0.1,1.2,0.1c2.3,0,4.4-0.8,6.1-2.1c-2.2,0-4-1.5-4.6-3.4C11,22,11.3,22,11.6,22
	c0.4,0,0.9-0.1,1.3-0.2C10.7,21.3,9,19.3,9,16.9v-0.1c0.7,0.4,1.4,0.6,2.2,0.6c-1.3-0.8-2.2-2.3-2.2-4c0-0.9,0.2-1.7,0.7-2.5
	c2.4,3,6.1,4.9,10.1,5.1c-0.1-0.4-0.1-0.7-0.1-1.1c0-2.7,2.2-4.9,4.9-4.9c1.4,0,2.7,0.6,3.6,1.6c1.1-0.2,2.2-0.6,3.1-1.2
	C31,11.5,30.2,12.5,29.2,13.1z M20,40c11,0,20-9,20-20S31,0,20,0S0,9,0,20S9,40,20,40z"/>
</svg>
